<svg width="2597.1000000000004" height="722.7" xmlns="http://www.w3.org/2000/svg" xmlns:xlink="http://www.w3.org/1999/xlink"><line x1="732.25" y1="7.0" x2="52.0" y2="31.0" style="stroke:black; stroke-width:1px;" />
<line x1="52.0" y1="38.0" x2="40.25" y2="62.0" style="stroke:black; stroke-width:1px;" />
<line x1="40.25" y1="69.0" x2="12.5" y2="93.0" style="stroke:black; stroke-width:1px;" />
<line x1="40.25" y1="69.0" x2="68.0" y2="93.0" style="stroke:black; stroke-width:1px;" />
<line x1="52.0" y1="38.0" x2="63.75" y2="62.0" style="stroke:black; stroke-width:1px;" />
<line x1="732.25" y1="7.0" x2="150.5" y2="31.0" style="stroke:black; stroke-width:1px;" />
<line x1="150.5" y1="38.0" x2="138.25" y2="62.0" style="stroke:black; stroke-width:1px;" />
<line x1="138.25" y1="69.0" x2="125.0" y2="93.0" style="stroke:black; stroke-width:1px;" />
<line x1="125.0" y1="100.0" x2="125.0" y2="124.0" style="stroke:black; stroke-width:1px;" />
<line x1="138.25" y1="69.0" x2="151.5" y2="93.0" style="stroke:black; stroke-width:1px;" />
<line x1="150.5" y1="38.0" x2="162.75" y2="62.0" style="stroke:black; stroke-width:1px;" />
<line x1="732.25" y1="7.0" x2="209.75" y2="31.0" style="stroke:black; stroke-width:1px;" />
<line x1="209.75" y1="38.0" x2="197.5" y2="62.0" style="stroke:black; stroke-width:1px;" />
<line x1="197.5" y1="69.0" x2="178.0" y2="93.0" style="stroke:black; stroke-width:1px;" />
<line x1="178.0" y1="100.0" x2="178.0" y2="124.0" style="stroke:black; stroke-width:1px;" />
<line x1="197.5" y1="69.0" x2="217.0" y2="93.0" style="stroke:black; stroke-width:1px;" />
<line x1="209.75" y1="38.0" x2="222.0" y2="62.0" style="stroke:black; stroke-width:1px;" />
<line x1="732.25" y1="7.0" x2="281.5" y2="31.0" style="stroke:black; stroke-width:1px;" />
<line x1="281.5" y1="38.0" x2="269.25" y2="62.0" style="stroke:black; stroke-width:1px;" />
<line x1="269.25" y1="69.0" x2="256.0" y2="93.0" style="stroke:black; stroke-width:1px;" />
<line x1="256.0" y1="100.0" x2="256.0" y2="124.0" style="stroke:black; stroke-width:1px;" />
<line x1="269.25" y1="69.0" x2="282.5" y2="93.0" style="stroke:black; stroke-width:1px;" />
<line x1="281.5" y1="38.0" x2="293.75" y2="62.0" style="stroke:black; stroke-width:1px;" />
<line x1="732.25" y1="7.0" x2="364.5" y2="31.0" style="stroke:black; stroke-width:1px;" />
<line x1="364.5" y1="38.0" x2="350.25" y2="62.0" style="stroke:black; stroke-width:1px;" />
<line x1="350.25" y1="69.0" x2="327.0" y2="93.0" style="stroke:black; stroke-width:1px;" />
<line x1="350.25" y1="69.0" x2="346.0" y2="93.0" style="stroke:black; stroke-width:1px;" />
<line x1="350.25" y1="69.0" x2="373.5" y2="93.0" style="stroke:black; stroke-width:1px;" />
<line x1="373.5" y1="100.0" x2="296.5" y2="124.0" style="stroke:black; stroke-width:1px;" />
<line x1="296.5" y1="131.0" x2="296.5" y2="155.0" style="stroke:black; stroke-width:1px;" />
<line x1="296.5" y1="162.0" x2="296.5" y2="186.0" style="stroke:black; stroke-width:1px;" />
<line x1="373.5" y1="100.0" x2="338.25" y2="124.0" style="stroke:black; stroke-width:1px;" />
<line x1="373.5" y1="100.0" x2="380.0" y2="124.0" style="stroke:black; stroke-width:1px;" />
<line x1="380.0" y1="131.0" x2="355.5" y2="155.0" style="stroke:black; stroke-width:1px;" />
<line x1="380.0" y1="131.0" x2="404.5" y2="155.0" style="stroke:black; stroke-width:1px;" />
<line x1="373.5" y1="100.0" x2="405.0" y2="124.0" style="stroke:black; stroke-width:1px;" />
<line x1="373.5" y1="100.0" x2="421.0" y2="124.0" style="stroke:black; stroke-width:1px;" />
<line x1="373.5" y1="100.0" x2="450.5" y2="124.0" style="stroke:black; stroke-width:1px;" />
<line x1="364.5" y1="38.0" x2="378.75" y2="62.0" style="stroke:black; stroke-width:1px;" />
<line x1="732.25" y1="7.0" x2="499.5" y2="31.0" style="stroke:black; stroke-width:1px;" />
<line x1="499.5" y1="38.0" x2="485.25" y2="62.0" style="stroke:black; stroke-width:1px;" />
<line x1="485.25" y1="69.0" x2="455.75" y2="93.0" style="stroke:black; stroke-width:1px;" />
<line x1="485.25" y1="69.0" x2="487.25" y2="93.0" style="stroke:black; stroke-width:1px;" />
<line x1="485.25" y1="69.0" x2="514.75" y2="93.0" style="stroke:black; stroke-width:1px;" />
<line x1="514.75" y1="100.0" x2="490.0" y2="124.0" style="stroke:black; stroke-width:1px;" />
<line x1="514.75" y1="100.0" x2="539.5" y2="124.0" style="stroke:black; stroke-width:1px;" />
<line x1="499.5" y1="38.0" x2="513.75" y2="62.0" style="stroke:black; stroke-width:1px;" />
<line x1="732.25" y1="7.0" x2="652.625" y2="31.0" style="stroke:black; stroke-width:1px;" />
<line x1="652.625" y1="38.0" x2="638.375" y2="62.0" style="stroke:black; stroke-width:1px;" />
<line x1="638.375" y1="69.0" x2="615.125" y2="93.0" style="stroke:black; stroke-width:1px;" />
<line x1="638.375" y1="69.0" x2="634.125" y2="93.0" style="stroke:black; stroke-width:1px;" />
<line x1="638.375" y1="69.0" x2="661.625" y2="93.0" style="stroke:black; stroke-width:1px;" />
<line x1="661.625" y1="100.0" x2="588.0" y2="124.0" style="stroke:black; stroke-width:1px;" />
<line x1="588.0" y1="131.0" x2="588.0" y2="155.0" style="stroke:black; stroke-width:1px;" />
<line x1="588.0" y1="162.0" x2="588.0" y2="186.0" style="stroke:black; stroke-width:1px;" />
<line x1="661.625" y1="100.0" x2="630.125" y2="124.0" style="stroke:black; stroke-width:1px;" />
<line x1="661.625" y1="100.0" x2="672.25" y2="124.0" style="stroke:black; stroke-width:1px;" />
<line x1="672.25" y1="131.0" x2="647.0" y2="155.0" style="stroke:black; stroke-width:1px;" />
<line x1="672.25" y1="131.0" x2="697.5" y2="155.0" style="stroke:black; stroke-width:1px;" />
<line x1="661.625" y1="100.0" x2="697.25" y2="124.0" style="stroke:black; stroke-width:1px;" />
<line x1="661.625" y1="100.0" x2="713.25" y2="124.0" style="stroke:black; stroke-width:1px;" />
<line x1="661.625" y1="100.0" x2="735.25" y2="124.0" style="stroke:black; stroke-width:1px;" />
<line x1="652.625" y1="38.0" x2="666.875" y2="62.0" style="stroke:black; stroke-width:1px;" />
<line x1="732.25" y1="7.0" x2="821.0" y2="31.0" style="stroke:black; stroke-width:1px;" />
<line x1="821.0" y1="38.0" x2="807.5" y2="62.0" style="stroke:black; stroke-width:1px;" />
<line x1="807.5" y1="69.0" x2="789.0" y2="93.0" style="stroke:black; stroke-width:1px;" />
<line x1="807.5" y1="69.0" x2="826.0" y2="93.0" style="stroke:black; stroke-width:1px;" />
<line x1="826.0" y1="100.0" x2="772.75" y2="124.0" style="stroke:black; stroke-width:1px;" />
<line x1="826.0" y1="100.0" x2="814.25" y2="124.0" style="stroke:black; stroke-width:1px;" />
<line x1="814.25" y1="131.0" x2="814.25" y2="155.0" style="stroke:black; stroke-width:1px;" />
<line x1="826.0" y1="100.0" x2="839.25" y2="124.0" style="stroke:black; stroke-width:1px;" />
<line x1="826.0" y1="100.0" x2="859.25" y2="124.0" style="stroke:black; stroke-width:1px;" />
<line x1="826.0" y1="100.0" x2="879.25" y2="124.0" style="stroke:black; stroke-width:1px;" />
<line x1="821.0" y1="38.0" x2="834.5" y2="62.0" style="stroke:black; stroke-width:1px;" />
<line x1="732.25" y1="7.0" x2="959.0" y2="31.0" style="stroke:black; stroke-width:1px;" />
<line x1="959.0" y1="38.0" x2="945.5" y2="62.0" style="stroke:black; stroke-width:1px;" />
<line x1="945.5" y1="69.0" x2="927.0" y2="93.0" style="stroke:black; stroke-width:1px;" />
<line x1="945.5" y1="69.0" x2="964.0" y2="93.0" style="stroke:black; stroke-width:1px;" />
<line x1="964.0" y1="100.0" x2="910.75" y2="124.0" style="stroke:black; stroke-width:1px;" />
<line x1="964.0" y1="100.0" x2="952.25" y2="124.0" style="stroke:black; stroke-width:1px;" />
<line x1="952.25" y1="131.0" x2="952.25" y2="155.0" style="stroke:black; stroke-width:1px;" />
<line x1="964.0" y1="100.0" x2="977.25" y2="124.0" style="stroke:black; stroke-width:1px;" />
<line x1="964.0" y1="100.0" x2="997.25" y2="124.0" style="stroke:black; stroke-width:1px;" />
<line x1="964.0" y1="100.0" x2="1017.25" y2="124.0" style="stroke:black; stroke-width:1px;" />
<line x1="959.0" y1="38.0" x2="972.5" y2="62.0" style="stroke:black; stroke-width:1px;" />
<line x1="732.25" y1="7.0" x2="1094.5" y2="31.0" style="stroke:black; stroke-width:1px;" />
<line x1="1094.5" y1="38.0" x2="1081.0" y2="62.0" style="stroke:black; stroke-width:1px;" />
<line x1="1081.0" y1="69.0" x2="1060.0" y2="93.0" style="stroke:black; stroke-width:1px;" />
<line x1="1081.0" y1="69.0" x2="1102.0" y2="93.0" style="stroke:black; stroke-width:1px;" />
<line x1="1102.0" y1="100.0" x2="1048.75" y2="124.0" style="stroke:black; stroke-width:1px;" />
<line x1="1102.0" y1="100.0" x2="1090.25" y2="124.0" style="stroke:black; stroke-width:1px;" />
<line x1="1090.25" y1="131.0" x2="1090.25" y2="155.0" style="stroke:black; stroke-width:1px;" />
<line x1="1102.0" y1="100.0" x2="1115.25" y2="124.0" style="stroke:black; stroke-width:1px;" />
<line x1="1102.0" y1="100.0" x2="1135.25" y2="124.0" style="stroke:black; stroke-width:1px;" />
<line x1="1102.0" y1="100.0" x2="1155.25" y2="124.0" style="stroke:black; stroke-width:1px;" />
<line x1="1094.5" y1="38.0" x2="1108.0" y2="62.0" style="stroke:black; stroke-width:1px;" />
<line x1="732.25" y1="7.0" x2="1370.5" y2="31.0" style="stroke:black; stroke-width:1px;" />
<line x1="1370.5" y1="38.0" x2="1357.0" y2="62.0" style="stroke:black; stroke-width:1px;" />
<line x1="1357.0" y1="69.0" x2="1198.0" y2="93.0" style="stroke:black; stroke-width:1px;" />
<line x1="1357.0" y1="69.0" x2="1240.0" y2="93.0" style="stroke:black; stroke-width:1px;" />
<line x1="1240.0" y1="100.0" x2="1186.75" y2="124.0" style="stroke:black; stroke-width:1px;" />
<line x1="1240.0" y1="100.0" x2="1228.25" y2="124.0" style="stroke:black; stroke-width:1px;" />
<line x1="1228.25" y1="131.0" x2="1228.25" y2="155.0" style="stroke:black; stroke-width:1px;" />
<line x1="1240.0" y1="100.0" x2="1253.25" y2="124.0" style="stroke:black; stroke-width:1px;" />
<line x1="1240.0" y1="100.0" x2="1273.25" y2="124.0" style="stroke:black; stroke-width:1px;" />
<line x1="1240.0" y1="100.0" x2="1293.25" y2="124.0" style="stroke:black; stroke-width:1px;" />
<line x1="1357.0" y1="69.0" x2="1309.0" y2="93.0" style="stroke:black; stroke-width:1px;" />
<line x1="1357.0" y1="69.0" x2="1378.0" y2="93.0" style="stroke:black; stroke-width:1px;" />
<line x1="1378.0" y1="100.0" x2="1324.75" y2="124.0" style="stroke:black; stroke-width:1px;" />
<line x1="1378.0" y1="100.0" x2="1366.25" y2="124.0" style="stroke:black; stroke-width:1px;" />
<line x1="1366.25" y1="131.0" x2="1366.25" y2="155.0" style="stroke:black; stroke-width:1px;" />
<line x1="1378.0" y1="100.0" x2="1391.25" y2="124.0" style="stroke:black; stroke-width:1px;" />
<line x1="1378.0" y1="100.0" x2="1411.25" y2="124.0" style="stroke:black; stroke-width:1px;" />
<line x1="1378.0" y1="100.0" x2="1431.25" y2="124.0" style="stroke:black; stroke-width:1px;" />
<line x1="1357.0" y1="69.0" x2="1447.0" y2="93.0" style="stroke:black; stroke-width:1px;" />
<line x1="1357.0" y1="69.0" x2="1516.0" y2="93.0" style="stroke:black; stroke-width:1px;" />
<line x1="1516.0" y1="100.0" x2="1462.75" y2="124.0" style="stroke:black; stroke-width:1px;" />
<line x1="1516.0" y1="100.0" x2="1504.25" y2="124.0" style="stroke:black; stroke-width:1px;" />
<line x1="1504.25" y1="131.0" x2="1504.25" y2="155.0" style="stroke:black; stroke-width:1px;" />
<line x1="1516.0" y1="100.0" x2="1529.25" y2="124.0" style="stroke:black; stroke-width:1px;" />
<line x1="1516.0" y1="100.0" x2="1549.25" y2="124.0" style="stroke:black; stroke-width:1px;" />
<line x1="1516.0" y1="100.0" x2="1569.25" y2="124.0" style="stroke:black; stroke-width:1px;" />
<line x1="1370.5" y1="38.0" x2="1384.0" y2="62.0" style="stroke:black; stroke-width:1px;" />
<line x1="732.25" y1="7.0" x2="1412.5" y2="31.0" style="stroke:black; stroke-width:1px;" />
<rect x="475.0" y="124.0" width="30.0" height="14.0" style="fill:orange; stroke:rgb(0,0,0);" rx="1"/>
<text x="477" y="133" style="font-family:sans-serif;font-size:10px;">
read
</text>
<rect x="551.0" y="155.0" width="74.0" height="14.0" style="fill:orange; stroke:rgb(0,0,0);" rx="1"/>
<text x="553" y="164" style="font-family:sans-serif;font-size:10px;">
numerictype
</text>
<rect x="950.0" y="93.0" width="28.0" height="14.0" style="fill:orange; stroke:rgb(0,0,0);" rx="1"/>
<text x="952" y="102" style="font-family:sans-serif;font-size:10px;">
func
</text>
<rect x="107.0" y="124.0" width="36.0" height="14.0" style="fill:orange; stroke:rgb(0,0,0);" rx="1"/>
<text x="109" y="133" style="font-family:sans-serif;font-size:10px;">
NMEC
</text>
<rect x="1289.25" y="124.0" width="8.0" height="14.0" style="fill:orange; stroke:rgb(0,0,0);" rx="1"/>
<text x="1291" y="133" style="font-family:sans-serif;font-size:10px;">
)
</text>
<rect x="184.0" y="62.0" width="27.0" height="14.0" style="fill:orange; stroke:rgb(0,0,0);" rx="1"/>
<text x="186" y="71" style="font-family:sans-serif;font-size:10px;">
decl
</text>
<rect x="1443.0" y="93.0" width="8.0" height="14.0" style="fill:orange; stroke:rgb(0,0,0);" rx="1"/>
<text x="1445" y="102" style="font-family:sans-serif;font-size:10px;">
,
</text>
<rect x="255.75" y="62.0" width="27.0" height="14.0" style="fill:orange; stroke:rgb(0,0,0);" rx="1"/>
<text x="257" y="71" style="font-family:sans-serif;font-size:10px;">
decl
</text>
<rect x="973.25" y="124.0" width="8.0" height="14.0" style="fill:orange; stroke:rgb(0,0,0);" rx="1"/>
<text x="975" y="133" style="font-family:sans-serif;font-size:10px;">
,
</text>
<rect x="0.0" y="93.0" width="25.0" height="14.0" style="fill:orange; stroke:rgb(0,0,0);" rx="1"/>
<text x="2" y="102" style="font-family:sans-serif;font-size:10px;">
use
</text>
<rect x="416.0" y="124.0" width="10.0" height="14.0" style="fill:orange; stroke:rgb(0,0,0);" rx="1"/>
<text x="418" y="133" style="font-family:sans-serif;font-size:10px;">
*
</text>
<rect x="1166.25" y="124.0" width="41.0" height="14.0" style="fill:orange; stroke:rgb(0,0,0);" rx="1"/>
<text x="1168" y="133" style="font-family:sans-serif;font-size:10px;">
string(
</text>
<rect x="351.5" y="31.0" width="26.0" height="14.0" style="fill:orange; stroke:rgb(0,0,0);" rx="1"/>
<text x="353" y="40" style="font-family:sans-serif;font-size:10px;">
stat
</text>
<rect x="366.0" y="124.0" width="28.0" height="14.0" style="fill:orange; stroke:rgb(0,0,0);" rx="1"/>
<text x="368" y="133" style="font-family:sans-serif;font-size:10px;">
func
</text>
<rect x="1525.25" y="124.0" width="8.0" height="14.0" style="fill:orange; stroke:rgb(0,0,0);" rx="1"/>
<text x="1527" y="133" style="font-family:sans-serif;font-size:10px;">
,
</text>
<rect x="236.5" y="124.0" width="39.0" height="14.0" style="fill:orange; stroke:rgb(0,0,0);" rx="1"/>
<text x="238" y="133" style="font-family:sans-serif;font-size:10px;">
Grade
</text>
<rect x="437.75" y="93.0" width="36.0" height="14.0" style="fill:orange; stroke:rgb(0,0,0);" rx="1"/>
<text x="439" y="102" style="font-family:sans-serif;font-size:10px;">
name
</text>
<rect x="124.75" y="62.0" width="27.0" height="14.0" style="fill:orange; stroke:rgb(0,0,0);" rx="1"/>
<text x="126" y="71" style="font-family:sans-serif;font-size:10px;">
decl
</text>
<rect x="218.0" y="62.0" width="8.0" height="14.0" style="fill:orange; stroke:rgb(0,0,0);" rx="1"/>
<text x="220" y="71" style="font-family:sans-serif;font-size:10px;">
;
</text>
<rect x="1380.0" y="62.0" width="8.0" height="14.0" style="fill:orange; stroke:rgb(0,0,0);" rx="1"/>
<text x="1382" y="71" style="font-family:sans-serif;font-size:10px;">
;
</text>
<rect x="321.5" y="93.0" width="11.0" height="14.0" style="fill:orange; stroke:rgb(0,0,0);" rx="1"/>
<text x="323" y="102" style="font-family:sans-serif;font-size:10px;">
n
</text>
<rect x="890.25" y="124.0" width="41.0" height="14.0" style="fill:orange; stroke:rgb(0,0,0);" rx="1"/>
<text x="892" y="133" style="font-family:sans-serif;font-size:10px;">
string(
</text>
<rect x="1502.0" y="93.0" width="28.0" height="14.0" style="fill:orange; stroke:rgb(0,0,0);" rx="1"/>
<text x="1504" y="102" style="font-family:sans-serif;font-size:10px;">
func
</text>
<rect x="1357.5" y="31.0" width="26.0" height="14.0" style="fill:orange; stroke:rgb(0,0,0);" rx="1"/>
<text x="1359" y="40" style="font-family:sans-serif;font-size:10px;">
stat
</text>
<rect x="988.25" y="124.0" width="18.0" height="14.0" style="fill:orange; stroke:rgb(0,0,0);" rx="1"/>
<text x="990" y="133" style="font-family:sans-serif;font-size:10px;">
30
</text>
<rect x="111.0" y="93.0" width="28.0" height="14.0" style="fill:orange; stroke:rgb(0,0,0);" rx="1"/>
<text x="113" y="102" style="font-family:sans-serif;font-size:10px;">
type
</text>
<rect x="401.0" y="124.0" width="8.0" height="14.0" style="fill:orange; stroke:rgb(0,0,0);" rx="1"/>
<text x="403" y="133" style="font-family:sans-serif;font-size:10px;">
)
</text>
<rect x="632.0" y="155.0" width="30.0" height="14.0" style="fill:orange; stroke:rgb(0,0,0);" rx="1"/>
<text x="634" y="164" style="font-family:sans-serif;font-size:10px;">
read
</text>
<rect x="334.25" y="124.0" width="8.0" height="14.0" style="fill:orange; stroke:rgb(0,0,0);" rx="1"/>
<text x="336" y="133" style="font-family:sans-serif;font-size:10px;">
(
</text>
<rect x="639.625" y="31.0" width="26.0" height="14.0" style="fill:orange; stroke:rgb(0,0,0);" rx="1"/>
<text x="641" y="40" style="font-family:sans-serif;font-size:10px;">
stat
</text>
<rect x="259.5" y="155.0" width="74.0" height="14.0" style="fill:orange; stroke:rgb(0,0,0);" rx="1"/>
<text x="261" y="164" style="font-family:sans-serif;font-size:10px;">
numerictype
</text>
<rect x="1390.5" y="31.0" width="44.0" height="14.0" style="fill:orange; stroke:rgb(0,0,0);" rx="1"/>
<text x="1392" y="40" style="font-family:sans-serif;font-size:10px;">
&lt;EOF&gt;
</text>
<rect x="1063.75" y="155.0" width="53.0" height="14.0" style="fill:orange; stroke:rgb(0,0,0);" rx="1"/>
<text x="1065" y="164" style="font-family:sans-serif;font-size:10px;">
"Grade:"
</text>
<rect x="812.0" y="93.0" width="28.0" height="14.0" style="fill:orange; stroke:rgb(0,0,0);" rx="1"/>
<text x="814" y="102" style="font-family:sans-serif;font-size:10px;">
func
</text>
<rect x="480.75" y="93.0" width="13.0" height="14.0" style="fill:orange; stroke:rgb(0,0,0);" rx="1"/>
<text x="482" y="102" style="font-family:sans-serif;font-size:10px;">
=
</text>
<rect x="800.25" y="124.0" width="28.0" height="14.0" style="fill:orange; stroke:rgb(0,0,0);" rx="1"/>
<text x="802" y="133" style="font-family:sans-serif;font-size:10px;">
func
</text>
<rect x="268.5" y="31.0" width="26.0" height="14.0" style="fill:orange; stroke:rgb(0,0,0);" rx="1"/>
<text x="270" y="40" style="font-family:sans-serif;font-size:10px;">
stat
</text>
<rect x="725.25" y="124.0" width="20.0" height="14.0" style="fill:orange; stroke:rgb(0,0,0);" rx="1"/>
<text x="727" y="133" style="font-family:sans-serif;font-size:10px;">
val
</text>
<rect x="1088.0" y="93.0" width="28.0" height="14.0" style="fill:orange; stroke:rgb(0,0,0);" rx="1"/>
<text x="1090" y="102" style="font-family:sans-serif;font-size:10px;">
func
</text>
<rect x="146.0" y="93.0" width="11.0" height="14.0" style="fill:orange; stroke:rgb(0,0,0);" rx="1"/>
<text x="148" y="102" style="font-family:sans-serif;font-size:10px;">
n
</text>
<rect x="1104.0" y="62.0" width="8.0" height="14.0" style="fill:orange; stroke:rgb(0,0,0);" rx="1"/>
<text x="1106" y="71" style="font-family:sans-serif;font-size:10px;">
;
</text>
<rect x="658.25" y="124.0" width="28.0" height="14.0" style="fill:orange; stroke:rgb(0,0,0);" rx="1"/>
<text x="660" y="133" style="font-family:sans-serif;font-size:10px;">
func
</text>
<rect x="1126.25" y="124.0" width="18.0" height="14.0" style="fill:orange; stroke:rgb(0,0,0);" rx="1"/>
<text x="1128" y="133" style="font-family:sans-serif;font-size:10px;">
10
</text>
<rect x="575.0" y="186.0" width="26.0" height="14.0" style="fill:orange; stroke:rgb(0,0,0);" rx="1"/>
<text x="577" y="195" style="font-family:sans-serif;font-size:10px;">
real
</text>
<rect x="59.75" y="62.0" width="8.0" height="14.0" style="fill:orange; stroke:rgb(0,0,0);" rx="1"/>
<text x="61" y="71" style="font-family:sans-serif;font-size:10px;">
;
</text>
<rect x="627.625" y="93.0" width="13.0" height="14.0" style="fill:orange; stroke:rgb(0,0,0);" rx="1"/>
<text x="629" y="102" style="font-family:sans-serif;font-size:10px;">
=
</text>
<rect x="773.0" y="93.0" width="32.0" height="14.0" style="fill:orange; stroke:rgb(0,0,0);" rx="1"/>
<text x="775" y="102" style="font-family:sans-serif;font-size:10px;">
write
</text>
<rect x="242.0" y="93.0" width="28.0" height="14.0" style="fill:orange; stroke:rgb(0,0,0);" rx="1"/>
<text x="244" y="102" style="font-family:sans-serif;font-size:10px;">
type
</text>
<rect x="377.5" y="155.0" width="54.0" height="14.0" style="fill:orange; stroke:rgb(0,0,0);" rx="1"/>
<text x="379" y="164" style="font-family:sans-serif;font-size:10px;">
"NMEC:·"
</text>
<rect x="705.75" y="0.0" width="53.0" height="14.0" style="fill:orange; stroke:rgb(0,0,0);" rx="1"/>
<text x="707" y="9" style="font-family:sans-serif;font-size:10px;">
program
</text>
<rect x="137.5" y="31.0" width="26.0" height="14.0" style="fill:orange; stroke:rgb(0,0,0);" rx="1"/>
<text x="139" y="40" style="font-family:sans-serif;font-size:10px;">
stat
</text>
<rect x="196.75" y="31.0" width="26.0" height="14.0" style="fill:orange; stroke:rgb(0,0,0);" rx="1"/>
<text x="198" y="40" style="font-family:sans-serif;font-size:10px;">
stat
</text>
<rect x="374.75" y="62.0" width="8.0" height="14.0" style="fill:orange; stroke:rgb(0,0,0);" rx="1"/>
<text x="376" y="71" style="font-family:sans-serif;font-size:10px;">
;
</text>
<rect x="32.0" y="93.0" width="72.0" height="14.0" style="fill:orange; stroke:rgb(0,0,0);" rx="1"/>
<text x="34" y="102" style="font-family:sans-serif;font-size:10px;">
"grades.da"
</text>
<rect x="1226.0" y="93.0" width="28.0" height="14.0" style="fill:orange; stroke:rgb(0,0,0);" rx="1"/>
<text x="1228" y="102" style="font-family:sans-serif;font-size:10px;">
func
</text>
<rect x="486.5" y="31.0" width="26.0" height="14.0" style="fill:orange; stroke:rgb(0,0,0);" rx="1"/>
<text x="488" y="40" style="font-family:sans-serif;font-size:10px;">
stat
</text>
<rect x="1490.25" y="124.0" width="28.0" height="14.0" style="fill:orange; stroke:rgb(0,0,0);" rx="1"/>
<text x="1492" y="133" style="font-family:sans-serif;font-size:10px;">
func
</text>
<rect x="789.25" y="155.0" width="50.0" height="14.0" style="fill:orange; stroke:rgb(0,0,0);" rx="1"/>
<text x="791" y="164" style="font-family:sans-serif;font-size:10px;">
"NMEC:"
</text>
<rect x="1341.0" y="62.0" width="32.0" height="14.0" style="fill:orange; stroke:rgb(0,0,0);" rx="1"/>
<text x="1343" y="71" style="font-family:sans-serif;font-size:10px;">
write
</text>
<rect x="708.25" y="124.0" width="10.0" height="14.0" style="fill:orange; stroke:rgb(0,0,0);" rx="1"/>
<text x="710" y="133" style="font-family:sans-serif;font-size:10px;">
*
</text>
<rect x="339.5" y="93.0" width="13.0" height="14.0" style="fill:orange; stroke:rgb(0,0,0);" rx="1"/>
<text x="341" y="102" style="font-family:sans-serif;font-size:10px;">
=
</text>
<rect x="467.75" y="62.0" width="35.0" height="14.0" style="fill:orange; stroke:rgb(0,0,0);" rx="1"/>
<text x="469" y="71" style="font-family:sans-serif;font-size:10px;">
assig
</text>
<rect x="433.0" y="124.0" width="35.0" height="14.0" style="fill:orange; stroke:rgb(0,0,0);" rx="1"/>
<text x="435" y="133" style="font-family:sans-serif;font-size:10px;">
nmec
</text>
<rect x="39.0" y="31.0" width="26.0" height="14.0" style="fill:orange; stroke:rgb(0,0,0);" rx="1"/>
<text x="41" y="40" style="font-family:sans-serif;font-size:10px;">
stat
</text>
<rect x="274.5" y="186.0" width="44.0" height="14.0" style="fill:orange; stroke:rgb(0,0,0);" rx="1"/>
<text x="276" y="195" style="font-family:sans-serif;font-size:10px;">
integer
</text>
<rect x="1151.25" y="124.0" width="8.0" height="14.0" style="fill:orange; stroke:rgb(0,0,0);" rx="1"/>
<text x="1153" y="133" style="font-family:sans-serif;font-size:10px;">
)
</text>
<rect x="1427.25" y="124.0" width="8.0" height="14.0" style="fill:orange; stroke:rgb(0,0,0);" rx="1"/>
<text x="1429" y="133" style="font-family:sans-serif;font-size:10px;">
)
</text>
<rect x="1498.75" y="155.0" width="11.0" height="14.0" style="fill:orange; stroke:rgb(0,0,0);" rx="1"/>
<text x="1500" y="164" style="font-family:sans-serif;font-size:10px;">
g
</text>
<rect x="647.625" y="93.0" width="28.0" height="14.0" style="fill:orange; stroke:rgb(0,0,0);" rx="1"/>
<text x="649" y="102" style="font-family:sans-serif;font-size:10px;">
func
</text>
<rect x="928.75" y="155.0" width="47.0" height="14.0" style="fill:orange; stroke:rgb(0,0,0);" rx="1"/>
<text x="930" y="164" style="font-family:sans-serif;font-size:10px;">
"Name"
</text>
<rect x="500.75" y="93.0" width="28.0" height="14.0" style="fill:orange; stroke:rgb(0,0,0);" rx="1"/>
<text x="502" y="102" style="font-family:sans-serif;font-size:10px;">
func
</text>
<rect x="282.5" y="124.0" width="28.0" height="14.0" style="fill:orange; stroke:rgb(0,0,0);" rx="1"/>
<text x="284" y="133" style="font-family:sans-serif;font-size:10px;">
type
</text>
<rect x="1402.25" y="124.0" width="18.0" height="14.0" style="fill:orange; stroke:rgb(0,0,0);" rx="1"/>
<text x="1404" y="133" style="font-family:sans-serif;font-size:10px;">
30
</text>
<rect x="1013.25" y="124.0" width="8.0" height="14.0" style="fill:orange; stroke:rgb(0,0,0);" rx="1"/>
<text x="1015" y="133" style="font-family:sans-serif;font-size:10px;">
)
</text>
<rect x="752.25" y="124.0" width="41.0" height="14.0" style="fill:orange; stroke:rgb(0,0,0);" rx="1"/>
<text x="754" y="133" style="font-family:sans-serif;font-size:10px;">
string(
</text>
<rect x="199.0" y="93.0" width="36.0" height="14.0" style="fill:orange; stroke:rgb(0,0,0);" rx="1"/>
<text x="201" y="102" style="font-family:sans-serif;font-size:10px;">
name
</text>
<rect x="1387.25" y="124.0" width="8.0" height="14.0" style="fill:orange; stroke:rgb(0,0,0);" rx="1"/>
<text x="1389" y="133" style="font-family:sans-serif;font-size:10px;">
,
</text>
<rect x="574.0" y="124.0" width="28.0" height="14.0" style="fill:orange; stroke:rgb(0,0,0);" rx="1"/>
<text x="576" y="133" style="font-family:sans-serif;font-size:10px;">
type
</text>
<rect x="946.0" y="31.0" width="26.0" height="14.0" style="fill:orange; stroke:rgb(0,0,0);" rx="1"/>
<text x="948" y="40" style="font-family:sans-serif;font-size:10px;">
stat
</text>
<rect x="340.5" y="155.0" width="30.0" height="14.0" style="fill:orange; stroke:rgb(0,0,0);" rx="1"/>
<text x="342" y="164" style="font-family:sans-serif;font-size:10px;">
read
</text>
<rect x="835.25" y="124.0" width="8.0" height="14.0" style="fill:orange; stroke:rgb(0,0,0);" rx="1"/>
<text x="837" y="133" style="font-family:sans-serif;font-size:10px;">
,
</text>
<rect x="509.75" y="62.0" width="8.0" height="14.0" style="fill:orange; stroke:rgb(0,0,0);" rx="1"/>
<text x="511" y="71" style="font-family:sans-serif;font-size:10px;">
;
</text>
<rect x="1065.0" y="62.0" width="32.0" height="14.0" style="fill:orange; stroke:rgb(0,0,0);" rx="1"/>
<text x="1067" y="71" style="font-family:sans-serif;font-size:10px;">
write
</text>
<rect x="158.75" y="62.0" width="8.0" height="14.0" style="fill:orange; stroke:rgb(0,0,0);" rx="1"/>
<text x="160" y="71" style="font-family:sans-serif;font-size:10px;">
;
</text>
<rect x="1214.25" y="124.0" width="28.0" height="14.0" style="fill:orange; stroke:rgb(0,0,0);" rx="1"/>
<text x="1216" y="133" style="font-family:sans-serif;font-size:10px;">
func
</text>
<rect x="1304.25" y="124.0" width="41.0" height="14.0" style="fill:orange; stroke:rgb(0,0,0);" rx="1"/>
<text x="1306" y="133" style="font-family:sans-serif;font-size:10px;">
string(
</text>
<rect x="1222.75" y="155.0" width="11.0" height="14.0" style="fill:orange; stroke:rgb(0,0,0);" rx="1"/>
<text x="1224" y="164" style="font-family:sans-serif;font-size:10px;">
n
</text>
<rect x="159.5" y="124.0" width="37.0" height="14.0" style="fill:orange; stroke:rgb(0,0,0);" rx="1"/>
<text x="161" y="133" style="font-family:sans-serif;font-size:10px;">
string
</text>
<rect x="609.625" y="93.0" width="11.0" height="14.0" style="fill:orange; stroke:rgb(0,0,0);" rx="1"/>
<text x="611" y="102" style="font-family:sans-serif;font-size:10px;">
g
</text>
<rect x="1076.25" y="124.0" width="28.0" height="14.0" style="fill:orange; stroke:rgb(0,0,0);" rx="1"/>
<text x="1078" y="133" style="font-family:sans-serif;font-size:10px;">
func
</text>
<rect x="620.875" y="62.0" width="35.0" height="14.0" style="fill:orange; stroke:rgb(0,0,0);" rx="1"/>
<text x="622" y="71" style="font-family:sans-serif;font-size:10px;">
assig
</text>
<rect x="850.25" y="124.0" width="18.0" height="14.0" style="fill:orange; stroke:rgb(0,0,0);" rx="1"/>
<text x="852" y="133" style="font-family:sans-serif;font-size:10px;">
10
</text>
<rect x="968.5" y="62.0" width="8.0" height="14.0" style="fill:orange; stroke:rgb(0,0,0);" rx="1"/>
<text x="970" y="71" style="font-family:sans-serif;font-size:10px;">
;
</text>
<rect x="289.75" y="62.0" width="8.0" height="14.0" style="fill:orange; stroke:rgb(0,0,0);" rx="1"/>
<text x="291" y="71" style="font-family:sans-serif;font-size:10px;">
;
</text>
<rect x="911.0" y="93.0" width="32.0" height="14.0" style="fill:orange; stroke:rgb(0,0,0);" rx="1"/>
<text x="913" y="102" style="font-family:sans-serif;font-size:10px;">
write
</text>
<rect x="1081.5" y="31.0" width="26.0" height="14.0" style="fill:orange; stroke:rgb(0,0,0);" rx="1"/>
<text x="1083" y="40" style="font-family:sans-serif;font-size:10px;">
stat
</text>
<rect x="164.0" y="93.0" width="28.0" height="14.0" style="fill:orange; stroke:rgb(0,0,0);" rx="1"/>
<text x="166" y="102" style="font-family:sans-serif;font-size:10px;">
type
</text>
<rect x="875.25" y="124.0" width="8.0" height="14.0" style="fill:orange; stroke:rgb(0,0,0);" rx="1"/>
<text x="877" y="133" style="font-family:sans-serif;font-size:10px;">
)
</text>
<rect x="1177.0" y="93.0" width="42.0" height="14.0" style="fill:orange; stroke:rgb(0,0,0);" rx="1"/>
<text x="1179" y="102" style="font-family:sans-serif;font-size:10px;">
writeln
</text>
<rect x="1264.25" y="124.0" width="18.0" height="14.0" style="fill:orange; stroke:rgb(0,0,0);" rx="1"/>
<text x="1266" y="133" style="font-family:sans-serif;font-size:10px;">
10
</text>
<rect x="277.0" y="93.0" width="11.0" height="14.0" style="fill:orange; stroke:rgb(0,0,0);" rx="1"/>
<text x="279" y="102" style="font-family:sans-serif;font-size:10px;">
g
</text>
<rect x="512.0" y="124.0" width="55.0" height="14.0" style="fill:orange; stroke:rgb(0,0,0);" rx="1"/>
<text x="514" y="133" style="font-family:sans-serif;font-size:10px;">
"Name:·"
</text>
<rect x="929.5" y="62.0" width="32.0" height="14.0" style="fill:orange; stroke:rgb(0,0,0);" rx="1"/>
<text x="931" y="71" style="font-family:sans-serif;font-size:10px;">
write
</text>
<rect x="808.0" y="31.0" width="26.0" height="14.0" style="fill:orange; stroke:rgb(0,0,0);" rx="1"/>
<text x="810" y="40" style="font-family:sans-serif;font-size:10px;">
stat
</text>
<rect x="27.75" y="62.0" width="25.0" height="14.0" style="fill:orange; stroke:rgb(0,0,0);" rx="1"/>
<text x="29" y="71" style="font-family:sans-serif;font-size:10px;">
use
</text>
<rect x="1364.0" y="93.0" width="28.0" height="14.0" style="fill:orange; stroke:rgb(0,0,0);" rx="1"/>
<text x="1366" y="102" style="font-family:sans-serif;font-size:10px;">
func
</text>
<rect x="830.5" y="62.0" width="8.0" height="14.0" style="fill:orange; stroke:rgb(0,0,0);" rx="1"/>
<text x="832" y="71" style="font-family:sans-serif;font-size:10px;">
;
</text>
<rect x="938.25" y="124.0" width="28.0" height="14.0" style="fill:orange; stroke:rgb(0,0,0);" rx="1"/>
<text x="940" y="133" style="font-family:sans-serif;font-size:10px;">
func
</text>
<rect x="359.5" y="93.0" width="28.0" height="14.0" style="fill:orange; stroke:rgb(0,0,0);" rx="1"/>
<text x="361" y="102" style="font-family:sans-serif;font-size:10px;">
func
</text>
<rect x="1442.25" y="124.0" width="41.0" height="14.0" style="fill:orange; stroke:rgb(0,0,0);" rx="1"/>
<text x="1444" y="133" style="font-family:sans-serif;font-size:10px;">
string(
</text>
<rect x="662.875" y="62.0" width="8.0" height="14.0" style="fill:orange; stroke:rgb(0,0,0);" rx="1"/>
<text x="664" y="71" style="font-family:sans-serif;font-size:10px;">
;
</text>
<rect x="332.75" y="62.0" width="35.0" height="14.0" style="fill:orange; stroke:rgb(0,0,0);" rx="1"/>
<text x="334" y="71" style="font-family:sans-serif;font-size:10px;">
assig
</text>
<rect x="1028.25" y="124.0" width="41.0" height="14.0" style="fill:orange; stroke:rgb(0,0,0);" rx="1"/>
<text x="1030" y="133" style="font-family:sans-serif;font-size:10px;">
string(
</text>
<rect x="1305.0" y="93.0" width="8.0" height="14.0" style="fill:orange; stroke:rgb(0,0,0);" rx="1"/>
<text x="1307" y="102" style="font-family:sans-serif;font-size:10px;">
,
</text>
<rect x="1348.25" y="155.0" width="36.0" height="14.0" style="fill:orange; stroke:rgb(0,0,0);" rx="1"/>
<text x="1350" y="164" style="font-family:sans-serif;font-size:10px;">
name
</text>
<rect x="626.125" y="124.0" width="8.0" height="14.0" style="fill:orange; stroke:rgb(0,0,0);" rx="1"/>
<text x="628" y="133" style="font-family:sans-serif;font-size:10px;">
(
</text>
<rect x="693.25" y="124.0" width="8.0" height="14.0" style="fill:orange; stroke:rgb(0,0,0);" rx="1"/>
<text x="695" y="133" style="font-family:sans-serif;font-size:10px;">
)
</text>
<rect x="1540.25" y="124.0" width="18.0" height="14.0" style="fill:orange; stroke:rgb(0,0,0);" rx="1"/>
<text x="1542" y="133" style="font-family:sans-serif;font-size:10px;">
10
</text>
<rect x="791.5" y="62.0" width="32.0" height="14.0" style="fill:orange; stroke:rgb(0,0,0);" rx="1"/>
<text x="793" y="71" style="font-family:sans-serif;font-size:10px;">
write
</text>
<rect x="1249.25" y="124.0" width="8.0" height="14.0" style="fill:orange; stroke:rgb(0,0,0);" rx="1"/>
<text x="1251" y="133" style="font-family:sans-serif;font-size:10px;">
,
</text>
<rect x="1565.25" y="124.0" width="8.0" height="14.0" style="fill:orange; stroke:rgb(0,0,0);" rx="1"/>
<text x="1567" y="133" style="font-family:sans-serif;font-size:10px;">
)
</text>
<rect x="1039.0" y="93.0" width="42.0" height="14.0" style="fill:orange; stroke:rgb(0,0,0);" rx="1"/>
<text x="1041" y="102" style="font-family:sans-serif;font-size:10px;">
writeln
</text>
<rect x="1111.25" y="124.0" width="8.0" height="14.0" style="fill:orange; stroke:rgb(0,0,0);" rx="1"/>
<text x="1113" y="133" style="font-family:sans-serif;font-size:10px;">
,
</text>
<rect x="1352.25" y="124.0" width="28.0" height="14.0" style="fill:orange; stroke:rgb(0,0,0);" rx="1"/>
<text x="1354" y="133" style="font-family:sans-serif;font-size:10px;">
func
</text>
<rect x="669.0" y="155.0" width="57.0" height="14.0" style="fill:orange; stroke:rgb(0,0,0);" rx="1"/>
<text x="671" y="164" style="font-family:sans-serif;font-size:10px;">
"Grade:·"
</text>
</svg>