<svg width="2046.0000000000002" height="1018.6000000000001" xmlns="http://www.w3.org/2000/svg" xmlns:xlink="http://www.w3.org/1999/xlink"><line x1="635.375" y1="7.0" x2="52.75" y2="31.0" style="stroke:black; stroke-width:1px;" />
<line x1="52.75" y1="38.0" x2="41.0" y2="62.0" style="stroke:black; stroke-width:1px;" />
<line x1="41.0" y1="69.0" x2="12.5" y2="93.0" style="stroke:black; stroke-width:1px;" />
<line x1="41.0" y1="69.0" x2="69.5" y2="93.0" style="stroke:black; stroke-width:1px;" />
<line x1="52.75" y1="38.0" x2="64.5" y2="62.0" style="stroke:black; stroke-width:1px;" />
<line x1="635.375" y1="7.0" x2="152.5" y2="31.0" style="stroke:black; stroke-width:1px;" />
<line x1="152.5" y1="38.0" x2="140.25" y2="62.0" style="stroke:black; stroke-width:1px;" />
<line x1="140.25" y1="69.0" x2="128.0" y2="93.0" style="stroke:black; stroke-width:1px;" />
<line x1="128.0" y1="100.0" x2="128.0" y2="124.0" style="stroke:black; stroke-width:1px;" />
<line x1="140.25" y1="69.0" x2="152.5" y2="93.0" style="stroke:black; stroke-width:1px;" />
<line x1="152.5" y1="38.0" x2="164.75" y2="62.0" style="stroke:black; stroke-width:1px;" />
<line x1="635.375" y1="7.0" x2="201.75" y2="31.0" style="stroke:black; stroke-width:1px;" />
<line x1="201.75" y1="38.0" x2="189.5" y2="62.0" style="stroke:black; stroke-width:1px;" />
<line x1="189.5" y1="69.0" x2="177.0" y2="93.0" style="stroke:black; stroke-width:1px;" />
<line x1="177.0" y1="100.0" x2="177.0" y2="124.0" style="stroke:black; stroke-width:1px;" />
<line x1="189.5" y1="69.0" x2="202.0" y2="93.0" style="stroke:black; stroke-width:1px;" />
<line x1="201.75" y1="38.0" x2="214.0" y2="62.0" style="stroke:black; stroke-width:1px;" />
<line x1="635.375" y1="7.0" x2="252.25" y2="31.0" style="stroke:black; stroke-width:1px;" />
<line x1="252.25" y1="38.0" x2="240.0" y2="62.0" style="stroke:black; stroke-width:1px;" />
<line x1="240.0" y1="69.0" x2="227.0" y2="93.0" style="stroke:black; stroke-width:1px;" />
<line x1="227.0" y1="100.0" x2="227.0" y2="124.0" style="stroke:black; stroke-width:1px;" />
<line x1="240.0" y1="69.0" x2="253.0" y2="93.0" style="stroke:black; stroke-width:1px;" />
<line x1="252.25" y1="38.0" x2="264.5" y2="62.0" style="stroke:black; stroke-width:1px;" />
<line x1="635.375" y1="7.0" x2="307.25" y2="31.0" style="stroke:black; stroke-width:1px;" />
<line x1="307.25" y1="38.0" x2="293.0" y2="62.0" style="stroke:black; stroke-width:1px;" />
<line x1="293.0" y1="69.0" x2="270.75" y2="93.0" style="stroke:black; stroke-width:1px;" />
<line x1="293.0" y1="69.0" x2="287.75" y2="93.0" style="stroke:black; stroke-width:1px;" />
<line x1="293.0" y1="69.0" x2="315.25" y2="93.0" style="stroke:black; stroke-width:1px;" />
<line x1="315.25" y1="100.0" x2="289.25" y2="124.0" style="stroke:black; stroke-width:1px;" />
<line x1="289.25" y1="131.0" x2="289.25" y2="155.0" style="stroke:black; stroke-width:1px;" />
<line x1="315.25" y1="100.0" x2="315.25" y2="124.0" style="stroke:black; stroke-width:1px;" />
<line x1="315.25" y1="100.0" x2="341.25" y2="124.0" style="stroke:black; stroke-width:1px;" />
<line x1="341.25" y1="131.0" x2="341.25" y2="155.0" style="stroke:black; stroke-width:1px;" />
<line x1="307.25" y1="38.0" x2="321.5" y2="62.0" style="stroke:black; stroke-width:1px;" />
<line x1="635.375" y1="7.0" x2="394.0" y2="31.0" style="stroke:black; stroke-width:1px;" />
<line x1="394.0" y1="38.0" x2="379.75" y2="62.0" style="stroke:black; stroke-width:1px;" />
<line x1="379.75" y1="69.0" x2="357.25" y2="93.0" style="stroke:black; stroke-width:1px;" />
<line x1="379.75" y1="69.0" x2="374.75" y2="93.0" style="stroke:black; stroke-width:1px;" />
<line x1="379.75" y1="69.0" x2="402.25" y2="93.0" style="stroke:black; stroke-width:1px;" />
<line x1="402.25" y1="100.0" x2="376.25" y2="124.0" style="stroke:black; stroke-width:1px;" />
<line x1="376.25" y1="131.0" x2="376.25" y2="155.0" style="stroke:black; stroke-width:1px;" />
<line x1="402.25" y1="100.0" x2="402.25" y2="124.0" style="stroke:black; stroke-width:1px;" />
<line x1="402.25" y1="100.0" x2="428.25" y2="124.0" style="stroke:black; stroke-width:1px;" />
<line x1="428.25" y1="131.0" x2="428.25" y2="155.0" style="stroke:black; stroke-width:1px;" />
<line x1="394.0" y1="38.0" x2="408.25" y2="62.0" style="stroke:black; stroke-width:1px;" />
<line x1="635.375" y1="7.0" x2="479.5" y2="31.0" style="stroke:black; stroke-width:1px;" />
<line x1="479.5" y1="38.0" x2="465.25" y2="62.0" style="stroke:black; stroke-width:1px;" />
<line x1="465.25" y1="69.0" x2="442.25" y2="93.0" style="stroke:black; stroke-width:1px;" />
<line x1="465.25" y1="69.0" x2="460.75" y2="93.0" style="stroke:black; stroke-width:1px;" />
<line x1="465.25" y1="69.0" x2="488.25" y2="93.0" style="stroke:black; stroke-width:1px;" />
<line x1="488.25" y1="100.0" x2="463.25" y2="124.0" style="stroke:black; stroke-width:1px;" />
<line x1="463.25" y1="131.0" x2="463.25" y2="155.0" style="stroke:black; stroke-width:1px;" />
<line x1="488.25" y1="100.0" x2="488.25" y2="124.0" style="stroke:black; stroke-width:1px;" />
<line x1="488.25" y1="100.0" x2="513.25" y2="124.0" style="stroke:black; stroke-width:1px;" />
<line x1="513.25" y1="131.0" x2="513.25" y2="155.0" style="stroke:black; stroke-width:1px;" />
<line x1="479.5" y1="38.0" x2="493.75" y2="62.0" style="stroke:black; stroke-width:1px;" />
<line x1="635.375" y1="7.0" x2="589.75" y2="31.0" style="stroke:black; stroke-width:1px;" />
<line x1="589.75" y1="38.0" x2="576.25" y2="62.0" style="stroke:black; stroke-width:1px;" />
<line x1="576.25" y1="69.0" x2="530.25" y2="93.0" style="stroke:black; stroke-width:1px;" />
<line x1="576.25" y1="69.0" x2="572.25" y2="93.0" style="stroke:black; stroke-width:1px;" />
<line x1="572.25" y1="100.0" x2="572.25" y2="124.0" style="stroke:black; stroke-width:1px;" />
<line x1="576.25" y1="69.0" x2="597.25" y2="93.0" style="stroke:black; stroke-width:1px;" />
<line x1="576.25" y1="69.0" x2="622.25" y2="93.0" style="stroke:black; stroke-width:1px;" />
<line x1="622.25" y1="100.0" x2="622.25" y2="124.0" style="stroke:black; stroke-width:1px;" />
<line x1="589.75" y1="38.0" x2="603.25" y2="62.0" style="stroke:black; stroke-width:1px;" />
<line x1="635.375" y1="7.0" x2="720.125" y2="31.0" style="stroke:black; stroke-width:1px;" />
<line x1="720.125" y1="38.0" x2="705.875" y2="62.0" style="stroke:black; stroke-width:1px;" />
<line x1="705.875" y1="69.0" x2="683.625" y2="93.0" style="stroke:black; stroke-width:1px;" />
<line x1="705.875" y1="69.0" x2="700.625" y2="93.0" style="stroke:black; stroke-width:1px;" />
<line x1="705.875" y1="69.0" x2="728.125" y2="93.0" style="stroke:black; stroke-width:1px;" />
<line x1="728.125" y1="100.0" x2="648.25" y2="124.0" style="stroke:black; stroke-width:1px;" />
<line x1="648.25" y1="131.0" x2="648.25" y2="155.0" style="stroke:black; stroke-width:1px;" />
<line x1="648.25" y1="162.0" x2="648.25" y2="186.0" style="stroke:black; stroke-width:1px;" />
<line x1="728.125" y1="100.0" x2="692.125" y2="124.0" style="stroke:black; stroke-width:1px;" />
<line x1="728.125" y1="100.0" x2="736.0" y2="124.0" style="stroke:black; stroke-width:1px;" />
<line x1="736.0" y1="131.0" x2="707.25" y2="155.0" style="stroke:black; stroke-width:1px;" />
<line x1="736.0" y1="131.0" x2="764.75" y2="155.0" style="stroke:black; stroke-width:1px;" />
<line x1="728.125" y1="100.0" x2="761.0" y2="124.0" style="stroke:black; stroke-width:1px;" />
<line x1="728.125" y1="100.0" x2="777.0" y2="124.0" style="stroke:black; stroke-width:1px;" />
<line x1="728.125" y1="100.0" x2="808.0" y2="124.0" style="stroke:black; stroke-width:1px;" />
<line x1="720.125" y1="38.0" x2="734.375" y2="62.0" style="stroke:black; stroke-width:1px;" />
<line x1="635.375" y1="7.0" x2="918.75" y2="31.0" style="stroke:black; stroke-width:1px;" />
<line x1="918.75" y1="38.0" x2="904.5" y2="62.0" style="stroke:black; stroke-width:1px;" />
<line x1="904.5" y1="69.0" x2="882.0" y2="93.0" style="stroke:black; stroke-width:1px;" />
<line x1="904.5" y1="69.0" x2="899.5" y2="93.0" style="stroke:black; stroke-width:1px;" />
<line x1="904.5" y1="69.0" x2="927.0" y2="93.0" style="stroke:black; stroke-width:1px;" />
<line x1="927.0" y1="100.0" x2="848.0" y2="124.0" style="stroke:black; stroke-width:1px;" />
<line x1="848.0" y1="131.0" x2="848.0" y2="155.0" style="stroke:black; stroke-width:1px;" />
<line x1="848.0" y1="162.0" x2="848.0" y2="186.0" style="stroke:black; stroke-width:1px;" />
<line x1="927.0" y1="100.0" x2="889.25" y2="124.0" style="stroke:black; stroke-width:1px;" />
<line x1="927.0" y1="100.0" x2="930.5" y2="124.0" style="stroke:black; stroke-width:1px;" />
<line x1="930.5" y1="131.0" x2="907.0" y2="155.0" style="stroke:black; stroke-width:1px;" />
<line x1="930.5" y1="131.0" x2="954.0" y2="155.0" style="stroke:black; stroke-width:1px;" />
<line x1="927.0" y1="100.0" x2="955.5" y2="124.0" style="stroke:black; stroke-width:1px;" />
<line x1="927.0" y1="100.0" x2="971.5" y2="124.0" style="stroke:black; stroke-width:1px;" />
<line x1="927.0" y1="100.0" x2="1006.0" y2="124.0" style="stroke:black; stroke-width:1px;" />
<line x1="918.75" y1="38.0" x2="933.0" y2="62.0" style="stroke:black; stroke-width:1px;" />
<line x1="635.375" y1="7.0" x2="1065.75" y2="31.0" style="stroke:black; stroke-width:1px;" />
<line x1="1065.75" y1="38.0" x2="1051.5" y2="62.0" style="stroke:black; stroke-width:1px;" />
<line x1="1051.5" y1="69.0" x2="1028.5" y2="93.0" style="stroke:black; stroke-width:1px;" />
<line x1="1051.5" y1="69.0" x2="1047.0" y2="93.0" style="stroke:black; stroke-width:1px;" />
<line x1="1051.5" y1="69.0" x2="1074.5" y2="93.0" style="stroke:black; stroke-width:1px;" />
<line x1="1074.5" y1="100.0" x2="1049.5" y2="124.0" style="stroke:black; stroke-width:1px;" />
<line x1="1049.5" y1="131.0" x2="1049.5" y2="155.0" style="stroke:black; stroke-width:1px;" />
<line x1="1074.5" y1="100.0" x2="1074.5" y2="124.0" style="stroke:black; stroke-width:1px;" />
<line x1="1074.5" y1="100.0" x2="1099.5" y2="124.0" style="stroke:black; stroke-width:1px;" />
<line x1="1099.5" y1="131.0" x2="1099.5" y2="155.0" style="stroke:black; stroke-width:1px;" />
<line x1="1065.75" y1="38.0" x2="1080.0" y2="62.0" style="stroke:black; stroke-width:1px;" />
<line x1="635.375" y1="7.0" x2="1176.0" y2="31.0" style="stroke:black; stroke-width:1px;" />
<line x1="1176.0" y1="38.0" x2="1162.5" y2="62.0" style="stroke:black; stroke-width:1px;" />
<line x1="1162.5" y1="69.0" x2="1116.5" y2="93.0" style="stroke:black; stroke-width:1px;" />
<line x1="1162.5" y1="69.0" x2="1158.5" y2="93.0" style="stroke:black; stroke-width:1px;" />
<line x1="1158.5" y1="100.0" x2="1158.5" y2="124.0" style="stroke:black; stroke-width:1px;" />
<line x1="1162.5" y1="69.0" x2="1183.5" y2="93.0" style="stroke:black; stroke-width:1px;" />
<line x1="1162.5" y1="69.0" x2="1208.5" y2="93.0" style="stroke:black; stroke-width:1px;" />
<line x1="1208.5" y1="100.0" x2="1208.5" y2="124.0" style="stroke:black; stroke-width:1px;" />
<line x1="1176.0" y1="38.0" x2="1189.5" y2="62.0" style="stroke:black; stroke-width:1px;" />
<line x1="635.375" y1="7.0" x2="1218.0" y2="31.0" style="stroke:black; stroke-width:1px;" />
<rect x="405.75" y="155.0" width="45.0" height="14.0" style="fill:orange; stroke:rgb(0,0,0);" rx="1"/>
<text x="407" y="164" style="font-family:sans-serif;font-size:10px;">
second
</text>
<rect x="449.25" y="124.0" width="28.0" height="14.0" style="fill:orange; stroke:rgb(0,0,0);" rx="1"/>
<text x="451" y="133" style="font-family:sans-serif;font-size:10px;">
func
</text>
<rect x="730.375" y="62.0" width="8.0" height="14.0" style="fill:orange; stroke:rgb(0,0,0);" rx="1"/>
<text x="732" y="71" style="font-family:sans-serif;font-size:10px;">
;
</text>
<rect x="39.75" y="31.0" width="26.0" height="14.0" style="fill:orange; stroke:rgb(0,0,0);" rx="1"/>
<text x="41" y="40" style="font-family:sans-serif;font-size:10px;">
stat
</text>
<rect x="1046.0" y="155.0" width="7.0" height="14.0" style="fill:orange; stroke:rgb(0,0,0);" rx="1"/>
<text x="1048" y="164" style="font-family:sans-serif;font-size:10px;">
l
</text>
<rect x="163.0" y="93.0" width="28.0" height="14.0" style="fill:orange; stroke:rgb(0,0,0);" rx="1"/>
<text x="165" y="102" style="font-family:sans-serif;font-size:10px;">
type
</text>
<rect x="1179.5" y="93.0" width="8.0" height="14.0" style="fill:orange; stroke:rgb(0,0,0);" rx="1"/>
<text x="1181" y="102" style="font-family:sans-serif;font-size:10px;">
,
</text>
<rect x="213.0" y="93.0" width="28.0" height="14.0" style="fill:orange; stroke:rgb(0,0,0);" rx="1"/>
<text x="215" y="102" style="font-family:sans-serif;font-size:10px;">
type
</text>
<rect x="772.0" y="124.0" width="10.0" height="14.0" style="fill:orange; stroke:rgb(0,0,0);" rx="1"/>
<text x="774" y="133" style="font-family:sans-serif;font-size:10px;">
*
</text>
<rect x="275.5" y="62.0" width="35.0" height="14.0" style="fill:orange; stroke:rgb(0,0,0);" rx="1"/>
<text x="277" y="71" style="font-family:sans-serif;font-size:10px;">
assig
</text>
<rect x="887.0" y="62.0" width="35.0" height="14.0" style="fill:orange; stroke:rgb(0,0,0);" rx="1"/>
<text x="889" y="71" style="font-family:sans-serif;font-size:10px;">
assig
</text>
<rect x="608.875" y="0.0" width="53.0" height="14.0" style="fill:orange; stroke:rgb(0,0,0);" rx="1"/>
<text x="610" y="9" style="font-family:sans-serif;font-size:10px;">
program
</text>
<rect x="239.25" y="31.0" width="26.0" height="14.0" style="fill:orange; stroke:rgb(0,0,0);" rx="1"/>
<text x="241" y="40" style="font-family:sans-serif;font-size:10px;">
stat
</text>
<rect x="327.25" y="124.0" width="28.0" height="14.0" style="fill:orange; stroke:rgb(0,0,0);" rx="1"/>
<text x="329" y="133" style="font-family:sans-serif;font-size:10px;">
func
</text>
<rect x="176.0" y="62.0" width="27.0" height="14.0" style="fill:orange; stroke:rgb(0,0,0);" rx="1"/>
<text x="178" y="71" style="font-family:sans-serif;font-size:10px;">
decl
</text>
<rect x="362.25" y="124.0" width="28.0" height="14.0" style="fill:orange; stroke:rgb(0,0,0);" rx="1"/>
<text x="364" y="133" style="font-family:sans-serif;font-size:10px;">
func
</text>
<rect x="149.0" y="93.0" width="7.0" height="14.0" style="fill:orange; stroke:rgb(0,0,0);" rx="1"/>
<text x="151" y="102" style="font-family:sans-serif;font-size:10px;">
l
</text>
<rect x="198.0" y="93.0" width="8.0" height="14.0" style="fill:orange; stroke:rgb(0,0,0);" rx="1"/>
<text x="200" y="102" style="font-family:sans-serif;font-size:10px;">
t
</text>
<rect x="0.0" y="93.0" width="25.0" height="14.0" style="fill:orange; stroke:rgb(0,0,0);" rx="1"/>
<text x="2" y="102" style="font-family:sans-serif;font-size:10px;">
use
</text>
<rect x="226.5" y="62.0" width="27.0" height="14.0" style="fill:orange; stroke:rgb(0,0,0);" rx="1"/>
<text x="228" y="71" style="font-family:sans-serif;font-size:10px;">
decl
</text>
<rect x="722.0" y="124.0" width="28.0" height="14.0" style="fill:orange; stroke:rgb(0,0,0);" rx="1"/>
<text x="724" y="133" style="font-family:sans-serif;font-size:10px;">
func
</text>
<rect x="1203.5" y="124.0" width="10.0" height="14.0" style="fill:orange; stroke:rgb(0,0,0);" rx="1"/>
<text x="1205" y="133" style="font-family:sans-serif;font-size:10px;">
v
</text>
<rect x="32.0" y="93.0" width="75.0" height="14.0" style="fill:orange; stroke:rgb(0,0,0);" rx="1"/>
<text x="34" y="102" style="font-family:sans-serif;font-size:10px;">
"physics.da"
</text>
<rect x="905.75" y="31.0" width="26.0" height="14.0" style="fill:orange; stroke:rgb(0,0,0);" rx="1"/>
<text x="907" y="40" style="font-family:sans-serif;font-size:10px;">
stat
</text>
<rect x="789.0" y="124.0" width="38.0" height="14.0" style="fill:orange; stroke:rgb(0,0,0);" rx="1"/>
<text x="791" y="133" style="font-family:sans-serif;font-size:10px;">
meter
</text>
<rect x="107.0" y="124.0" width="42.0" height="14.0" style="fill:orange; stroke:rgb(0,0,0);" rx="1"/>
<text x="109" y="133" style="font-family:sans-serif;font-size:10px;">
Length
</text>
<rect x="301.25" y="93.0" width="28.0" height="14.0" style="fill:orange; stroke:rgb(0,0,0);" rx="1"/>
<text x="303" y="102" style="font-family:sans-serif;font-size:10px;">
func
</text>
<rect x="499.25" y="124.0" width="28.0" height="14.0" style="fill:orange; stroke:rgb(0,0,0);" rx="1"/>
<text x="501" y="133" style="font-family:sans-serif;font-size:10px;">
func
</text>
<rect x="275.25" y="124.0" width="28.0" height="14.0" style="fill:orange; stroke:rgb(0,0,0);" rx="1"/>
<text x="277" y="133" style="font-family:sans-serif;font-size:10px;">
func
</text>
<rect x="381.0" y="31.0" width="26.0" height="14.0" style="fill:orange; stroke:rgb(0,0,0);" rx="1"/>
<text x="383" y="40" style="font-family:sans-serif;font-size:10px;">
stat
</text>
<rect x="281.25" y="93.0" width="13.0" height="14.0" style="fill:orange; stroke:rgb(0,0,0);" rx="1"/>
<text x="283" y="102" style="font-family:sans-serif;font-size:10px;">
=
</text>
<rect x="1052.75" y="31.0" width="26.0" height="14.0" style="fill:orange; stroke:rgb(0,0,0);" rx="1"/>
<text x="1054" y="40" style="font-family:sans-serif;font-size:10px;">
stat
</text>
<rect x="835.0" y="186.0" width="26.0" height="14.0" style="fill:orange; stroke:rgb(0,0,0);" rx="1"/>
<text x="837" y="195" style="font-family:sans-serif;font-size:10px;">
real
</text>
<rect x="634.25" y="124.0" width="28.0" height="14.0" style="fill:orange; stroke:rgb(0,0,0);" rx="1"/>
<text x="636" y="133" style="font-family:sans-serif;font-size:10px;">
type
</text>
<rect x="397.25" y="124.0" width="10.0" height="14.0" style="fill:orange; stroke:rgb(0,0,0);" rx="1"/>
<text x="399" y="133" style="font-family:sans-serif;font-size:10px;">
*
</text>
<rect x="599.25" y="62.0" width="8.0" height="14.0" style="fill:orange; stroke:rgb(0,0,0);" rx="1"/>
<text x="601" y="71" style="font-family:sans-serif;font-size:10px;">
;
</text>
<rect x="188.75" y="31.0" width="26.0" height="14.0" style="fill:orange; stroke:rgb(0,0,0);" rx="1"/>
<text x="190" y="40" style="font-family:sans-serif;font-size:10px;">
stat
</text>
<rect x="509.25" y="93.0" width="42.0" height="14.0" style="fill:orange; stroke:rgb(0,0,0);" rx="1"/>
<text x="511" y="102" style="font-family:sans-serif;font-size:10px;">
writeln
</text>
<rect x="951.5" y="124.0" width="8.0" height="14.0" style="fill:orange; stroke:rgb(0,0,0);" rx="1"/>
<text x="953" y="133" style="font-family:sans-serif;font-size:10px;">
)
</text>
<rect x="114.0" y="93.0" width="28.0" height="14.0" style="fill:orange; stroke:rgb(0,0,0);" rx="1"/>
<text x="116" y="102" style="font-family:sans-serif;font-size:10px;">
type
</text>
<rect x="983.5" y="124.0" width="45.0" height="14.0" style="fill:orange; stroke:rgb(0,0,0);" rx="1"/>
<text x="985" y="133" style="font-family:sans-serif;font-size:10px;">
second
</text>
<rect x="447.75" y="62.0" width="35.0" height="14.0" style="fill:orange; stroke:rgb(0,0,0);" rx="1"/>
<text x="449" y="71" style="font-family:sans-serif;font-size:10px;">
assig
</text>
<rect x="892.0" y="155.0" width="30.0" height="14.0" style="fill:orange; stroke:rgb(0,0,0);" rx="1"/>
<text x="894" y="164" style="font-family:sans-serif;font-size:10px;">
read
</text>
<rect x="459.75" y="155.0" width="7.0" height="14.0" style="fill:orange; stroke:rgb(0,0,0);" rx="1"/>
<text x="461" y="164" style="font-family:sans-serif;font-size:10px;">
l
</text>
<rect x="28.5" y="62.0" width="25.0" height="14.0" style="fill:orange; stroke:rgb(0,0,0);" rx="1"/>
<text x="30" y="71" style="font-family:sans-serif;font-size:10px;">
use
</text>
<rect x="454.25" y="93.0" width="13.0" height="14.0" style="fill:orange; stroke:rgb(0,0,0);" rx="1"/>
<text x="456" y="102" style="font-family:sans-serif;font-size:10px;">
=
</text>
<rect x="611.25" y="155.0" width="74.0" height="14.0" style="fill:orange; stroke:rgb(0,0,0);" rx="1"/>
<text x="613" y="164" style="font-family:sans-serif;font-size:10px;">
numerictype
</text>
<rect x="210.0" y="62.0" width="8.0" height="14.0" style="fill:orange; stroke:rgb(0,0,0);" rx="1"/>
<text x="212" y="71" style="font-family:sans-serif;font-size:10px;">
;
</text>
<rect x="322.25" y="155.0" width="38.0" height="14.0" style="fill:orange; stroke:rgb(0,0,0);" rx="1"/>
<text x="324" y="164" style="font-family:sans-serif;font-size:10px;">
meter
</text>
<rect x="160.75" y="62.0" width="8.0" height="14.0" style="fill:orange; stroke:rgb(0,0,0);" rx="1"/>
<text x="162" y="71" style="font-family:sans-serif;font-size:10px;">
;
</text>
<rect x="139.5" y="31.0" width="26.0" height="14.0" style="fill:orange; stroke:rgb(0,0,0);" rx="1"/>
<text x="141" y="40" style="font-family:sans-serif;font-size:10px;">
stat
</text>
<rect x="370.75" y="155.0" width="11.0" height="14.0" style="fill:orange; stroke:rgb(0,0,0);" rx="1"/>
<text x="372" y="164" style="font-family:sans-serif;font-size:10px;">
2
</text>
<rect x="1070.5" y="124.0" width="8.0" height="14.0" style="fill:orange; stroke:rgb(0,0,0);" rx="1"/>
<text x="1072" y="133" style="font-family:sans-serif;font-size:10px;">
/
</text>
<rect x="1185.5" y="62.0" width="8.0" height="14.0" style="fill:orange; stroke:rgb(0,0,0);" rx="1"/>
<text x="1187" y="71" style="font-family:sans-serif;font-size:10px;">
;
</text>
<rect x="294.25" y="31.0" width="26.0" height="14.0" style="fill:orange; stroke:rgb(0,0,0);" rx="1"/>
<text x="296" y="40" style="font-family:sans-serif;font-size:10px;">
stat
</text>
<rect x="608.25" y="93.0" width="28.0" height="14.0" style="fill:orange; stroke:rgb(0,0,0);" rx="1"/>
<text x="610" y="102" style="font-family:sans-serif;font-size:10px;">
func
</text>
<rect x="539.75" y="124.0" width="65.0" height="14.0" style="fill:orange; stroke:rgb(0,0,0);" rx="1"/>
<text x="541" y="133" style="font-family:sans-serif;font-size:10px;">
"Velocity:路"
</text>
<rect x="260.5" y="62.0" width="8.0" height="14.0" style="fill:orange; stroke:rgb(0,0,0);" rx="1"/>
<text x="262" y="71" style="font-family:sans-serif;font-size:10px;">
;
</text>
<rect x="362.25" y="62.0" width="35.0" height="14.0" style="fill:orange; stroke:rgb(0,0,0);" rx="1"/>
<text x="364" y="71" style="font-family:sans-serif;font-size:10px;">
assig
</text>
<rect x="317.5" y="62.0" width="8.0" height="14.0" style="fill:orange; stroke:rgb(0,0,0);" rx="1"/>
<text x="319" y="71" style="font-family:sans-serif;font-size:10px;">
;
</text>
<rect x="60.5" y="62.0" width="8.0" height="14.0" style="fill:orange; stroke:rgb(0,0,0);" rx="1"/>
<text x="62" y="71" style="font-family:sans-serif;font-size:10px;">
;
</text>
<rect x="267.25" y="93.0" width="7.0" height="14.0" style="fill:orange; stroke:rgb(0,0,0);" rx="1"/>
<text x="269" y="102" style="font-family:sans-serif;font-size:10px;">
l
</text>
<rect x="929.0" y="155.0" width="50.0" height="14.0" style="fill:orange; stroke:rgb(0,0,0);" rx="1"/>
<text x="931" y="164" style="font-family:sans-serif;font-size:10px;">
"Time:路"
</text>
<rect x="1095.5" y="93.0" width="42.0" height="14.0" style="fill:orange; stroke:rgb(0,0,0);" rx="1"/>
<text x="1097" y="102" style="font-family:sans-serif;font-size:10px;">
writeln
</text>
<rect x="1194.5" y="93.0" width="28.0" height="14.0" style="fill:orange; stroke:rgb(0,0,0);" rx="1"/>
<text x="1196" y="102" style="font-family:sans-serif;font-size:10px;">
func
</text>
<rect x="558.25" y="93.0" width="28.0" height="14.0" style="fill:orange; stroke:rgb(0,0,0);" rx="1"/>
<text x="560" y="102" style="font-family:sans-serif;font-size:10px;">
func
</text>
<rect x="729.25" y="155.0" width="71.0" height="14.0" style="fill:orange; stroke:rgb(0,0,0);" rx="1"/>
<text x="731" y="164" style="font-family:sans-serif;font-size:10px;">
"Distance:路"
</text>
<rect x="388.25" y="93.0" width="28.0" height="14.0" style="fill:orange; stroke:rgb(0,0,0);" rx="1"/>
<text x="390" y="102" style="font-family:sans-serif;font-size:10px;">
func
</text>
<rect x="280.25" y="155.0" width="18.0" height="14.0" style="fill:orange; stroke:rgb(0,0,0);" rx="1"/>
<text x="282" y="164" style="font-family:sans-serif;font-size:10px;">
10
</text>
<rect x="1126.0" y="124.0" width="65.0" height="14.0" style="fill:orange; stroke:rgb(0,0,0);" rx="1"/>
<text x="1128" y="133" style="font-family:sans-serif;font-size:10px;">
"Velocity:路"
</text>
<rect x="714.125" y="93.0" width="28.0" height="14.0" style="fill:orange; stroke:rgb(0,0,0);" rx="1"/>
<text x="716" y="102" style="font-family:sans-serif;font-size:10px;">
func
</text>
<rect x="560.25" y="62.0" width="32.0" height="14.0" style="fill:orange; stroke:rgb(0,0,0);" rx="1"/>
<text x="562" y="71" style="font-family:sans-serif;font-size:10px;">
write
</text>
<rect x="161.0" y="124.0" width="32.0" height="14.0" style="fill:orange; stroke:rgb(0,0,0);" rx="1"/>
<text x="163" y="133" style="font-family:sans-serif;font-size:10px;">
Time
</text>
<rect x="1076.0" y="62.0" width="8.0" height="14.0" style="fill:orange; stroke:rgb(0,0,0);" rx="1"/>
<text x="1078" y="71" style="font-family:sans-serif;font-size:10px;">
;
</text>
<rect x="484.25" y="124.0" width="8.0" height="14.0" style="fill:orange; stroke:rgb(0,0,0);" rx="1"/>
<text x="486" y="133" style="font-family:sans-serif;font-size:10px;">
/
</text>
<rect x="576.75" y="31.0" width="26.0" height="14.0" style="fill:orange; stroke:rgb(0,0,0);" rx="1"/>
<text x="578" y="40" style="font-family:sans-serif;font-size:10px;">
stat
</text>
<rect x="310.25" y="124.0" width="10.0" height="14.0" style="fill:orange; stroke:rgb(0,0,0);" rx="1"/>
<text x="312" y="133" style="font-family:sans-serif;font-size:10px;">
*
</text>
<rect x="680.125" y="93.0" width="7.0" height="14.0" style="fill:orange; stroke:rgb(0,0,0);" rx="1"/>
<text x="682" y="102" style="font-family:sans-serif;font-size:10px;">
l
</text>
<rect x="404.25" y="62.0" width="8.0" height="14.0" style="fill:orange; stroke:rgb(0,0,0);" rx="1"/>
<text x="406" y="71" style="font-family:sans-serif;font-size:10px;">
;
</text>
<rect x="966.5" y="124.0" width="10.0" height="14.0" style="fill:orange; stroke:rgb(0,0,0);" rx="1"/>
<text x="968" y="133" style="font-family:sans-serif;font-size:10px;">
*
</text>
<rect x="126.75" y="62.0" width="27.0" height="14.0" style="fill:orange; stroke:rgb(0,0,0);" rx="1"/>
<text x="128" y="71" style="font-family:sans-serif;font-size:10px;">
decl
</text>
<rect x="929.0" y="62.0" width="8.0" height="14.0" style="fill:orange; stroke:rgb(0,0,0);" rx="1"/>
<text x="931" y="71" style="font-family:sans-serif;font-size:10px;">
;
</text>
<rect x="1060.5" y="93.0" width="28.0" height="14.0" style="fill:orange; stroke:rgb(0,0,0);" rx="1"/>
<text x="1062" y="102" style="font-family:sans-serif;font-size:10px;">
func
</text>
<rect x="913.0" y="93.0" width="28.0" height="14.0" style="fill:orange; stroke:rgb(0,0,0);" rx="1"/>
<text x="915" y="102" style="font-family:sans-serif;font-size:10px;">
func
</text>
<rect x="437.25" y="93.0" width="10.0" height="14.0" style="fill:orange; stroke:rgb(0,0,0);" rx="1"/>
<text x="439" y="102" style="font-family:sans-serif;font-size:10px;">
v
</text>
<rect x="1163.0" y="31.0" width="26.0" height="14.0" style="fill:orange; stroke:rgb(0,0,0);" rx="1"/>
<text x="1165" y="40" style="font-family:sans-serif;font-size:10px;">
stat
</text>
<rect x="834.0" y="124.0" width="28.0" height="14.0" style="fill:orange; stroke:rgb(0,0,0);" rx="1"/>
<text x="836" y="133" style="font-family:sans-serif;font-size:10px;">
type
</text>
<rect x="593.25" y="93.0" width="8.0" height="14.0" style="fill:orange; stroke:rgb(0,0,0);" rx="1"/>
<text x="595" y="102" style="font-family:sans-serif;font-size:10px;">
,
</text>
<rect x="694.125" y="93.0" width="13.0" height="14.0" style="fill:orange; stroke:rgb(0,0,0);" rx="1"/>
<text x="696" y="102" style="font-family:sans-serif;font-size:10px;">
=
</text>
<rect x="893.0" y="93.0" width="13.0" height="14.0" style="fill:orange; stroke:rgb(0,0,0);" rx="1"/>
<text x="895" y="102" style="font-family:sans-serif;font-size:10px;">
=
</text>
<rect x="248.0" y="93.0" width="10.0" height="14.0" style="fill:orange; stroke:rgb(0,0,0);" rx="1"/>
<text x="250" y="102" style="font-family:sans-serif;font-size:10px;">
v
</text>
<rect x="707.125" y="31.0" width="26.0" height="14.0" style="fill:orange; stroke:rgb(0,0,0);" rx="1"/>
<text x="709" y="40" style="font-family:sans-serif;font-size:10px;">
stat
</text>
<rect x="688.375" y="62.0" width="35.0" height="14.0" style="fill:orange; stroke:rgb(0,0,0);" rx="1"/>
<text x="690" y="71" style="font-family:sans-serif;font-size:10px;">
assig
</text>
<rect x="1196.0" y="31.0" width="44.0" height="14.0" style="fill:orange; stroke:rgb(0,0,0);" rx="1"/>
<text x="1198" y="40" style="font-family:sans-serif;font-size:10px;">
&lt;EOF&gt;
</text>
<rect x="635.25" y="186.0" width="26.0" height="14.0" style="fill:orange; stroke:rgb(0,0,0);" rx="1"/>
<text x="637" y="195" style="font-family:sans-serif;font-size:10px;">
real
</text>
<rect x="1040.5" y="93.0" width="13.0" height="14.0" style="fill:orange; stroke:rgb(0,0,0);" rx="1"/>
<text x="1042" y="102" style="font-family:sans-serif;font-size:10px;">
=
</text>
<rect x="1035.5" y="124.0" width="28.0" height="14.0" style="fill:orange; stroke:rgb(0,0,0);" rx="1"/>
<text x="1037" y="133" style="font-family:sans-serif;font-size:10px;">
func
</text>
<rect x="203.5" y="124.0" width="47.0" height="14.0" style="fill:orange; stroke:rgb(0,0,0);" rx="1"/>
<text x="205" y="133" style="font-family:sans-serif;font-size:10px;">
Velocity
</text>
<rect x="414.25" y="124.0" width="28.0" height="14.0" style="fill:orange; stroke:rgb(0,0,0);" rx="1"/>
<text x="416" y="133" style="font-family:sans-serif;font-size:10px;">
func
</text>
<rect x="878.0" y="93.0" width="8.0" height="14.0" style="fill:orange; stroke:rgb(0,0,0);" rx="1"/>
<text x="880" y="102" style="font-family:sans-serif;font-size:10px;">
t
</text>
<rect x="466.5" y="31.0" width="26.0" height="14.0" style="fill:orange; stroke:rgb(0,0,0);" rx="1"/>
<text x="468" y="40" style="font-family:sans-serif;font-size:10px;">
stat
</text>
<rect x="1144.5" y="93.0" width="28.0" height="14.0" style="fill:orange; stroke:rgb(0,0,0);" rx="1"/>
<text x="1146" y="102" style="font-family:sans-serif;font-size:10px;">
func
</text>
<rect x="692.25" y="155.0" width="30.0" height="14.0" style="fill:orange; stroke:rgb(0,0,0);" rx="1"/>
<text x="694" y="164" style="font-family:sans-serif;font-size:10px;">
read
</text>
<rect x="757.0" y="124.0" width="8.0" height="14.0" style="fill:orange; stroke:rgb(0,0,0);" rx="1"/>
<text x="759" y="133" style="font-family:sans-serif;font-size:10px;">
)
</text>
<rect x="353.25" y="93.0" width="8.0" height="14.0" style="fill:orange; stroke:rgb(0,0,0);" rx="1"/>
<text x="355" y="102" style="font-family:sans-serif;font-size:10px;">
t
</text>
<rect x="1146.5" y="62.0" width="32.0" height="14.0" style="fill:orange; stroke:rgb(0,0,0);" rx="1"/>
<text x="1148" y="71" style="font-family:sans-serif;font-size:10px;">
write
</text>
<rect x="617.25" y="124.0" width="10.0" height="14.0" style="fill:orange; stroke:rgb(0,0,0);" rx="1"/>
<text x="619" y="133" style="font-family:sans-serif;font-size:10px;">
v
</text>
<rect x="368.25" y="93.0" width="13.0" height="14.0" style="fill:orange; stroke:rgb(0,0,0);" rx="1"/>
<text x="370" y="102" style="font-family:sans-serif;font-size:10px;">
=
</text>
<rect x="811.0" y="155.0" width="74.0" height="14.0" style="fill:orange; stroke:rgb(0,0,0);" rx="1"/>
<text x="813" y="164" style="font-family:sans-serif;font-size:10px;">
numerictype
</text>
<rect x="1095.5" y="155.0" width="8.0" height="14.0" style="fill:orange; stroke:rgb(0,0,0);" rx="1"/>
<text x="1097" y="164" style="font-family:sans-serif;font-size:10px;">
t
</text>
<rect x="1085.5" y="124.0" width="28.0" height="14.0" style="fill:orange; stroke:rgb(0,0,0);" rx="1"/>
<text x="1087" y="133" style="font-family:sans-serif;font-size:10px;">
func
</text>
<rect x="509.25" y="155.0" width="8.0" height="14.0" style="fill:orange; stroke:rgb(0,0,0);" rx="1"/>
<text x="511" y="164" style="font-family:sans-serif;font-size:10px;">
t
</text>
<rect x="489.75" y="62.0" width="8.0" height="14.0" style="fill:orange; stroke:rgb(0,0,0);" rx="1"/>
<text x="491" y="71" style="font-family:sans-serif;font-size:10px;">
;
</text>
<rect x="688.125" y="124.0" width="8.0" height="14.0" style="fill:orange; stroke:rgb(0,0,0);" rx="1"/>
<text x="690" y="133" style="font-family:sans-serif;font-size:10px;">
(
</text>
<rect x="1023.5" y="93.0" width="10.0" height="14.0" style="fill:orange; stroke:rgb(0,0,0);" rx="1"/>
<text x="1025" y="102" style="font-family:sans-serif;font-size:10px;">
v
</text>
<rect x="916.5" y="124.0" width="28.0" height="14.0" style="fill:orange; stroke:rgb(0,0,0);" rx="1"/>
<text x="918" y="133" style="font-family:sans-serif;font-size:10px;">
func
</text>
<rect x="885.25" y="124.0" width="8.0" height="14.0" style="fill:orange; stroke:rgb(0,0,0);" rx="1"/>
<text x="887" y="133" style="font-family:sans-serif;font-size:10px;">
(
</text>
<rect x="1034.0" y="62.0" width="35.0" height="14.0" style="fill:orange; stroke:rgb(0,0,0);" rx="1"/>
<text x="1036" y="71" style="font-family:sans-serif;font-size:10px;">
assig
</text>
<rect x="474.25" y="93.0" width="28.0" height="14.0" style="fill:orange; stroke:rgb(0,0,0);" rx="1"/>
<text x="476" y="102" style="font-family:sans-serif;font-size:10px;">
func
</text>
</svg>